HIERARCHY
ROOT root
{
	OFFSET 0.000000 0.000000 0.000000
	CHANNELS 6 Xposition Yposition Zposition Zrotation Yrotation Xrotation
	JOINT lhip
	{
		OFFSET 0.058581 -0.082280 -0.017664
		CHANNELS 3 Zrotation Yrotation Xrotation
		JOINT lknee
		{
			OFFSET 0.043451 -0.386469 0.008037
			CHANNELS 3 Zrotation Yrotation Xrotation
			JOINT lankle
			{
				OFFSET -0.014790 -0.426874 -0.037428
				CHANNELS 3 Zrotation Yrotation Xrotation
				JOINT ltoe
				{
					OFFSET 0.041054 -0.060286 0.122042
					CHANNELS 3 Zrotation Yrotation Xrotation
					End Site
					{
						OFFSET 0.000000 0.000000 0.000000
					}
				}
			}
		}
	}
	JOINT rhip
	{
		OFFSET -0.060310 -0.090513 -0.013543
		CHANNELS 3 Zrotation Yrotation Xrotation
		JOINT rknee
		{
			OFFSET -0.043257 -0.383688 -0.004843
			CHANNELS 3 Zrotation Yrotation Xrotation
			JOINT rankle
			{
				OFFSET 0.019056 -0.420046 -0.034562
				CHANNELS 3 Zrotation Yrotation Xrotation
				JOINT rtoe
				{
					OFFSET -0.034840 -0.062106 0.130323
					CHANNELS 3 Zrotation Yrotation Xrotation
					End Site
					{
						OFFSET 0.000000 0.000000 0.000000
					}
				}
			}
		}
	}
	JOINT lowerback
	{
		OFFSET 0.004439 0.124404 -0.038385
		CHANNELS 3 Zrotation Yrotation Xrotation
		JOINT upperback
		{
			OFFSET 0.004488 0.137956 0.026820
			CHANNELS 3 Zrotation Yrotation Xrotation
			JOINT chest
			{
				OFFSET -0.002265 0.056032 0.002855
				CHANNELS 3 Zrotation Yrotation Xrotation
				JOINT lowerneck
				{
					OFFSET -0.013390 0.211636 -0.033468
					CHANNELS 3 Zrotation Yrotation Xrotation
					JOINT upperneck
					{
						OFFSET 0.010113 0.088937 0.050410
						CHANNELS 3 Zrotation Yrotation Xrotation
						End Site
						{
							OFFSET 0.000000 0.000000 0.000000
						}
					}
				}
				JOINT lclavicle
				{
					OFFSET 0.071702 0.114000 -0.018898
					CHANNELS 3 Zrotation Yrotation Xrotation
					JOINT lshoulder
					{
						OFFSET 0.122921 0.045205 -0.019046
						CHANNELS 3 Zrotation Yrotation Xrotation
						JOINT lelbow
						{
							OFFSET 0.255332 -0.015649 -0.022946
							CHANNELS 3 Zrotation Yrotation Xrotation
							JOINT lwrist
							{
								OFFSET 0.265709 0.012698 -0.007375
								CHANNELS 3 Zrotation Yrotation Xrotation
								End Site
								{
									OFFSET 0.000000 0.000000 0.000000
								}
							}
						}
					}
				}
				JOINT rclavicle
				{
					OFFSET -0.082954 0.112472 -0.023707
					CHANNELS 3 Zrotation Yrotation Xrotation
					JOINT rshoulder
					{
						OFFSET -0.113228 0.046853 -0.008472
						CHANNELS 3 Zrotation Yrotation Xrotation
						JOINT relbow
						{
							OFFSET -0.260127 -0.014369 -0.031269
							CHANNELS 3 Zrotation Yrotation Xrotation
							JOINT rwrist
							{
								OFFSET -0.269108 0.006794 -0.006027
								CHANNELS 3 Zrotation Yrotation Xrotation
								End Site
								{
									OFFSET 0.000000 0.000000 0.000000
								}
							}
						}
					}
				}
			}
		}
	}
}
MOTION
Frames: 11
Frame Time: 0.033333
0.494480 0.168237 0.988103 87.202192 3.560687 96.440104 5.851771 4.699360 -1.998330 3.613454 -0.952088 -8.094222 -1.384897 11.865319 -2.759735 0.000000 -0.000000 0.000000 -1.656832 -2.420278 -6.780955 -1.342653 2.889885 -0.106205 5.717490 -6.140715 -3.001928 0.000000 -0.000000 0.000000 0.141277 0.716753 -0.730953 3.240374 -3.860182 -0.166033 -0.096336 1.000146 -6.193055 -0.041093 -9.542731 7.771022 5.821066 -9.500721 -5.199635 -16.620652 7.757365 -5.004811 -66.908814 -2.341789 25.478166 6.262990 -15.221445 13.800401 -12.421327 -8.112429 12.922266 18.271601 -0.727993 -3.047043 58.898853 3.488914 19.374254 -3.074372 12.672672 7.226360 6.689453 3.414719 4.215157 
0.493592 0.167859 0.988055 87.269900 3.529691 96.331428 5.870705 4.663457 -1.969536 3.559181 -0.910952 -8.078195 -1.393330 11.795547 -2.680966 0.000000 -0.000000 0.000000 -1.668835 -2.444578 -6.742305 -1.348410 2.817873 -0.050933 5.843176 -6.146758 -3.019536 0.000000 -0.000000 0.000000 0.304592 0.550550 -0.127410 3.149670 -3.653675 -1.181094 0.048199 0.890702 -5.481286 -0.121441 -9.077368 7.012330 5.339849 -9.055627 -5.080123 -16.701913 7.876260 -5.083490 -66.943286 -2.437631 25.150362 5.978502 -16.504570 14.657629 -12.178746 -8.414833 12.091755 18.147789 -0.924534 -3.163391 59.075207 3.806678 19.238831 -3.049165 13.157774 7.790054 6.708316 3.486377 4.354109 
0.493048 0.167396 0.988011 87.387466 3.404513 96.453339 5.763811 4.534435 -2.188471 3.530108 -0.830112 -8.054734 -1.458643 11.716350 -2.613078 0.000000 -0.000000 0.000000 -1.767796 -2.350743 -6.878212 -1.364108 2.633252 -0.076545 5.851689 -6.095263 -3.007721 0.000000 -0.000000 0.000000 0.346002 0.358373 -0.265935 3.112909 -3.499007 -1.433920 0.124206 0.554419 -5.012542 -0.179496 -8.308145 6.381249 4.843067 -8.678358 -5.176816 -16.802537 8.511728 -5.378030 -66.822258 -2.612667 25.022518 5.625882 -18.096412 15.853101 -12.707580 -9.382057 12.283500 18.090096 -1.288098 -3.138934 59.192359 4.636339 19.147028 -2.844138 13.384639 8.405291 6.938536 3.533379 4.540907 
0.492326 0.166716 0.988195 87.464179 3.249192 96.618933 5.611280 4.490769 -2.561256 3.500498 -0.833544 -7.876320 -1.507002 11.692210 -2.577124 0.000000 -0.000000 0.000000 -1.776084 -2.255233 -7.038417 -1.508673 2.638640 -0.231944 5.759171 -6.090157 -3.112443 0.000000 -0.000000 0.000000 0.526432 0.410978 0.094346 3.021587 -3.238474 -2.137131 0.000315 0.092756 -4.925239 -0.287033 -7.497387 5.742856 4.126117 -8.068015 -4.876244 -16.551185 9.320029 -5.869178 -66.707123 -2.487832 25.220155 4.437423 -20.636380 17.176532 -11.762251 -8.691455 11.589674 18.209822 -2.425344 -3.657238 59.085118 5.255336 19.170287 -2.031690 13.941193 9.635995 7.610358 3.231027 4.770007 
0.492107 0.166714 0.988193 87.484836 3.218433 96.600741 5.563889 4.429929 -2.579425 3.525085 -0.817269 -7.852915 -1.488023 11.697661 -2.593847 0.000000 -0.000000 0.000000 -1.797814 -2.249930 -7.050195 -1.523944 2.582192 -0.203541 5.778045 -6.068231 -3.126328 0.000000 -0.000000 0.000000 0.559922 0.405418 -0.011915 2.973523 -3.264648 -2.062881 -0.016614 0.050426 -4.866439 -0.290193 -7.153548 5.786146 4.051874 -7.746025 -4.860683 -16.465510 9.345335 -5.902019 -66.739949 -2.542213 25.234664 4.264173 -21.136422 17.427766 -11.858415 -8.860937 11.606106 18.254565 -2.266488 -3.395670 59.008624 5.529046 19.170268 -1.910514 14.082922 9.571834 7.590603 3.370236 4.751880 
0.492119 0.166515 0.988148 87.660322 3.163199 96.595995 5.552418 4.344844 -2.664397 3.473733 -0.859112 -7.739486 -1.481482 11.614605 -2.642475 0.000000 -0.000000 0.000000 -1.796479 -2.375607 -6.981597 -1.566880 2.515319 -0.281333 5.754083 -6.030420 -3.148850 0.000000 -0.000000 0.000000 0.538538 0.366521 -0.268668 2.958148 -3.365215 -1.813477 -0.014976 0.075160 -5.009224 -0.365757 -6.664117 6.046231 3.940907 -7.377215 -4.752020 -16.344367 9.224749 -5.885161 -66.801876 -2.641788 25.329255 4.065007 -21.749470 17.694720 -11.858087 -8.955800 11.732381 18.223603 -2.132988 -3.116835 58.967518 5.696459 19.167970 -1.687783 14.367734 9.622108 7.510852 3.512610 4.850936 
0.491963 0.166418 0.988079 87.735228 3.124905 96.553012 5.540204 4.312854 -2.685293 3.445609 -0.898180 -7.664405 -1.455624 11.601515 -2.703487 0.000000 -0.000000 0.000000 -1.820436 -2.422802 -6.892117 -1.573626 2.464610 -0.372162 5.771792 -6.028725 -3.153233 0.000000 -0.000000 0.000000 0.594071 0.384490 -0.352725 2.888060 -3.405937 -1.715528 -0.036257 0.193890 -5.163397 -0.524329 -6.369112 6.313507 3.864327 -6.970086 -4.586299 -16.289477 8.853370 -5.756862 -66.783784 -2.774119 25.457164 3.977464 -21.971128 17.798839 -11.719619 -9.009038 11.752107 18.031462 -1.624128 -2.702792 59.058729 5.639821 19.285696 -1.672984 14.547265 9.226181 7.249424 3.709364 4.491140 
0.491607 0.166433 0.987873 87.779876 3.100864 96.522008 5.518753 4.316025 -2.754630 3.442415 -0.916402 -7.544463 -1.430108 11.529688 -2.746314 0.000000 -0.000000 0.000000 -1.837341 -2.465957 -6.895842 -1.574237 2.431180 -0.346902 5.754473 -5.988998 -3.130746 0.000000 -0.000000 0.000000 0.683954 0.398149 -0.326543 2.881939 -3.424308 -1.820682 -0.078220 0.155618 -5.132647 -0.587411 -5.850508 6.254552 3.644772 -6.562027 -4.304221 -16.314734 8.782021 -5.871946 -66.777612 -2.867962 25.596400 3.870998 -21.902014 18.166222 -11.672832 -8.961900 11.966337 18.203624 -1.884998 -2.824117 58.824432 5.829253 19.220384 -1.551065 14.737734 9.665286 7.429493 3.578629 4.798536 
0.491391 0.166422 0.987766 87.799829 3.084938 96.443034 5.505901 4.341427 -2.690877 3.449168 -0.989684 -7.553537 -1.403142 11.544617 -2.740913 0.000000 -0.000000 0.000000 -1.843969 -2.474107 -6.836609 -1.581089 2.441952 -0.330543 5.761376 -6.014244 -3.138979 0.000000 -0.000000 0.000000 0.731009 0.409673 -0.226262 2.877647 -3.414182 -1.950023 -0.061566 0.181309 -5.150722 -0.686113 -5.469158 6.282881 3.466552 -6.071177 -4.010127 -16.279795 8.523029 -5.843542 -66.883428 -2.925514 25.769348 3.881773 -21.489034 18.489439 -11.467913 -8.883583 12.128148 18.145831 -1.812717 -2.746605 58.757585 5.934640 19.239596 -1.531662 14.629633 9.696320 7.374726 3.551001 4.749507 
0.491013 0.166345 0.987767 87.856662 3.065144 96.436024 5.472393 4.328859 -2.741794 3.493592 -1.044897 -7.520834 -1.400414 11.544674 -2.722889 0.000000 -0.000000 0.000000 -1.839781 -2.473052 -6.860615 -1.606538 2.445735 -0.302386 5.786141 -6.071587 -3.129036 0.000000 -0.000000 0.000000 0.724641 0.397557 -0.189841 2.916631 -3.443644 -2.001874 -0.014395 0.212380 -5.227744 -0.788794 -5.082021 6.294967 3.320182 -5.670900 -3.785849 -16.226053 8.304586 -5.879878 -66.958388 -2.992492 25.943241 3.761023 -20.882376 18.653348 -11.464072 -8.787678 12.269494 18.104323 -1.740786 -2.695188 58.685698 6.033818 19.242379 -1.558089 14.356763 9.577871 7.317623 3.466685 4.804834 
0.490691 0.166247 0.987781 87.901575 3.062785 96.405569 5.472649 4.335339 -2.758686 3.510432 -1.084467 -7.484271 -1.402372 11.530129 -2.713142 0.000000 -0.000000 0.000000 -1.834495 -2.504157 -6.840220 -1.597959 2.454474 -0.301770 5.813370 -6.093581 -3.130933 0.000000 -0.000000 0.000000 0.722367 0.418579 -0.159719 2.945118 -3.460487 -2.060332 0.019995 0.208436 -5.200411 -0.834152 -4.682266 6.282073 3.207289 -5.258061 -3.693244 -16.215321 8.082402 -5.940179 -66.965912 -3.024274 26.101158 3.613263 -20.263932 18.868001 -11.453256 -8.599133 12.434230 18.116755 -1.679358 -2.703117 58.570533 6.119424 19.220374 -1.614743 14.023923 9.381118 7.360616 3.407058 4.855831 
